<svg width="12" height="12" viewBox="0 4 17 17" fill="none" xmlns="http://www.w3.org/2000/svg">
<path d="M16.1667 7.22788L13.8833 4.94454C13.5853 4.66462 13.1948 4.50401 12.7861 4.49325C12.3774 4.4825 11.979 4.62235 11.6667 4.88621L4.16667 12.3862C3.89731 12.6578 3.72959 13.0139 3.69167 13.3945L3.33334 16.8695C3.32211 16.9916 3.33795 17.1146 3.37972 17.2299C3.42149 17.3451 3.48817 17.4497 3.575 17.5362C3.65287 17.6134 3.74522 17.6746 3.84675 17.716C3.94828 17.7575 4.057 17.7785 4.16667 17.7779H4.24167L7.71667 17.4612C8.09733 17.4233 8.45337 17.2556 8.725 16.9862L16.225 9.48621C16.5161 9.17868 16.6734 8.7683 16.6625 8.34499C16.6515 7.92168 16.4733 7.51997 16.1667 7.22788ZM13.3333 10.0112L11.1 7.77788L12.725 6.11121L15 8.38621L13.3333 10.0112Z" fill="royalblue"/>
</svg>
