<svg width="14" height="14" viewBox="-1 -2 18 18" fill="none" xmlns="http://www.w3.org/2000/svg">
<path d="M7.87499 7C9.31846 7 10.5938 5.64074 10.7187 3.96977C10.7808 3.13031 10.5175 2.34746 9.97717 1.76586C9.4426 1.19137 8.6953 0.875 7.87499 0.875C7.04811 0.875 6.30026 1.18945 5.76952 1.76039C5.23276 2.33762 4.97108 3.12211 5.03124 3.96922C5.15401 5.64047 6.42905 7 7.87499 7Z" fill="royalblue"/>
<path d="M13.5456 12.0247C13.3148 10.7445 12.5943 9.66902 11.4622 8.91434C10.4568 8.24414 9.18287 7.875 7.87502 7.875C6.56716 7.875 5.29322 8.24414 4.28779 8.91406C3.15576 9.66875 2.43525 10.7442 2.20447 12.0244C2.15169 12.3178 2.22333 12.6079 2.40107 12.8204C2.48168 12.9172 2.5829 12.9948 2.69734 13.0475C2.81178 13.1002 2.93654 13.1267 3.06251 13.125L12.6875 13.125C12.8136 13.1268 12.9384 13.1004 13.053 13.0477C13.1675 12.9951 13.2688 12.9175 13.3495 12.8207C13.5267 12.6082 13.5983 12.3181 13.5456 12.0247Z" fill="royalblue"/>
<path d="M2.84375 7.875L2.84375 6.78125H3.9375C4.05353 6.78125 4.16481 6.73516 4.24686 6.65311C4.32891 6.57106 4.375 6.45978 4.375 6.34375C4.375 6.22772 4.32891 6.11644 4.24686 6.03439C4.16481 5.95234 4.05353 5.90625 3.9375 5.90625H2.84375L2.84375 4.8125C2.84375 4.69647 2.79766 4.58519 2.71561 4.50314C2.63356 4.42109 2.52228 4.375 2.40625 4.375C2.29022 4.375 2.17894 4.42109 2.09689 4.50314C2.01484 4.58519 1.96875 4.69647 1.96875 4.8125L1.96875 5.90625H0.875C0.758968 5.90625 0.647688 5.95234 0.565641 6.03439C0.483594 6.11644 0.4375 6.22772 0.4375 6.34375C0.4375 6.45978 0.483594 6.57106 0.565641 6.65311C0.647688 6.73516 0.758968 6.78125 0.875 6.78125H1.96875L1.96875 7.875C1.96875 7.99103 2.01484 8.10231 2.09689 8.18436C2.17894 8.26641 2.29022 8.3125 2.40625 8.3125C2.52228 8.3125 2.63356 8.26641 2.71561 8.18436C2.79766 8.10231 2.84375 7.99103 2.84375 7.875Z" fill="royalblue"/>
</svg>
