<svg width="12" height="12" viewBox="-2.5 -2.5 15 15" fill="none" xmlns="http://www.w3.org/2000/svg">
<path d="M0.34324 9.61927C0.127135 9.38022 0.00572968 9.056 0.00572968 8.71794C0.00572968 8.37988 0.127135 8.05566 0.34324 7.8166L3.25311 5.00053L0.344201 2.18446C0.235758 2.06645 0.149511 1.92585 0.0904369 1.77078C0.0313625 1.61572 0.000628471 1.44925 9.53674e-06 1.28097C-0.000610352 1.1127 0.0288963 0.945962 0.0868273 0.790368C0.144758 0.634774 0.229966 0.493406 0.337537 0.374419C0.445108 0.255433 0.572913 0.161182 0.713579 0.097104C0.854246 0.0330256 1.00499 0.000387576 1.15712 0.00107276C1.30925 0.00175794 1.45974 0.0357526 1.59993 0.101096C1.74012 0.166439 1.86723 0.261838 1.97392 0.38179L4.99904 3.31153L8.02608 0.380728C8.13277 0.260776 8.25988 0.165377 8.40007 0.100034C8.54026 0.0346904 8.69075 0.000695752 8.84288 1.05685e-05C8.99501 -0.000674615 9.14575 0.0319635 9.28642 0.0960419C9.42709 0.16012 9.55489 0.254371 9.66246 0.373357C9.77003 0.492344 9.85524 0.633711 9.91317 0.789306C9.9711 0.9449 10.0006 1.11164 9.99999 1.27991C9.99937 1.44818 9.96864 1.61465 9.90956 1.76972C9.85049 1.92479 9.76424 2.06538 9.6558 2.1834L6.74496 5.00053L9.6558 7.8166C9.76424 7.93462 9.85049 8.07521 9.90956 8.23028C9.96864 8.38535 9.99937 8.55182 9.99999 8.72009C10.0006 8.88836 9.9711 9.0551 9.91317 9.21069C9.85524 9.36629 9.77003 9.50766 9.66246 9.62664C9.55489 9.74563 9.42709 9.83988 9.28642 9.90396C9.14575 9.96804 8.99501 10.0007 8.84288 9.99999C8.69075 9.9993 8.54026 9.96531 8.40007 9.89997C8.25988 9.83462 8.13277 9.73922 8.02608 9.61927L4.99904 6.68954L1.97392 9.61927C1.86689 9.73779 1.73979 9.83181 1.59989 9.89596C1.45999 9.96011 1.31003 9.99313 1.15858 9.99313C1.00713 9.99313 0.857174 9.96011 0.717272 9.89596C0.577369 9.83181 0.45027 9.73779 0.34324 9.61927Z" fill="royalblue"/>
</svg>
