<svg width="28" height="20" viewBox="0 0 28 20" fill="none" xmlns="http://www.w3.org/2000/svg">
<path d="M18.6665 9.99999C17.4672 9.99999 16.3075 9.4784 15.3999 8.53181C14.5173 7.60851 13.9783 6.37727 13.8832 5.0659C13.7817 3.66704 14.2198 2.38068 15.1164 1.44318C16.013 0.505681 17.2665 0 18.6665 0C20.0566 0 21.3137 0.514772 22.2073 1.45C23.1098 2.39432 23.549 3.6784 23.4475 5.06533C23.3501 6.3784 22.8117 7.60908 21.9308 8.53124C21.0255 9.4784 19.8664 9.99999 18.6665 9.99999Z" fill="white"/>
<path d="M26.3565 20H10.977C10.7298 20.0013 10.4855 19.9473 10.263 19.8422C10.0405 19.7371 9.84575 19.5837 9.6937 19.3937C9.53241 19.1878 9.42103 18.9491 9.3679 18.6953C9.31476 18.4416 9.32125 18.1794 9.38687 17.9284C9.87803 16.0074 11.0949 14.4142 12.9055 13.3216C14.5126 12.3523 16.5583 11.8182 18.6665 11.8182C20.8161 11.8182 22.8081 12.3295 24.4245 13.2983C26.2393 14.3852 27.4579 15.9875 27.9467 17.9318C28.0115 18.183 28.0173 18.4451 27.9635 18.6988C27.9098 18.9524 27.798 19.1909 27.6364 19.3966C27.4845 19.5856 27.2901 19.7383 27.0683 19.8429C26.8465 19.9475 26.603 20.0012 26.3565 20Z" fill="white"/>
<path d="M7.64154 10.2273C5.5888 10.2273 3.78398 8.36823 3.61656 6.08357C3.53373 4.91312 3.90823 3.83073 4.66656 3.03699C5.41672 2.25119 6.47488 1.81824 7.64154 1.81824C8.8082 1.81824 9.85819 2.25346 10.6124 3.0438C11.3766 3.8438 11.7499 4.92392 11.6624 6.08471C11.495 8.3688 9.69078 10.2273 7.64154 10.2273Z" fill="white"/>
<path d="M11.4717 12.0142C10.4456 11.5256 9.11388 11.2812 7.64214 11.2812C5.92365 11.2812 4.25474 11.7176 2.94225 12.5097C1.45418 13.4091 0.453181 14.7187 0.0489334 16.3C-0.010225 16.5274 -0.0158203 16.765 0.0325659 16.9948C0.0809522 17.2246 0.182067 17.4409 0.328348 17.6273C0.467151 17.8008 0.644971 17.9411 0.848134 18.0372C1.0513 18.1333 1.27439 18.1828 1.50026 18.1818H7.97522C8.08451 18.1818 8.19032 18.1444 8.27422 18.0762C8.35811 18.008 8.41477 17.9132 8.4343 17.8085C8.44072 17.7727 8.44889 17.7369 8.45822 17.7017C8.95288 15.7665 10.112 14.1312 11.8246 12.9392C11.8876 12.895 11.9383 12.8361 11.972 12.768C12.0058 12.6999 12.0215 12.6247 12.0179 12.5491C12.0142 12.4736 11.9913 12.4001 11.9511 12.3354C11.911 12.2706 11.8548 12.2167 11.7879 12.1784C11.6963 12.1261 11.5913 12.071 11.4717 12.0142Z" fill="white"/>
</svg>
