<svg width="35" height="20" viewBox="0 0 35 20" fill="none" xmlns="http://www.w3.org/2000/svg">
<path d="M32.6667 18.9159C32.34 18.9157 32.0171 18.8502 31.7187 18.7236C31.6493 18.6942 31.5831 18.6584 31.5211 18.6166L25.4902 14.5736C25.1844 14.3685 24.9347 14.0965 24.7624 13.7803C24.5901 13.4641 24.5001 13.1131 24.5 12.7569V7.24302C24.5001 6.8868 24.5901 6.53581 24.7624 6.21965C24.9347 5.90348 25.1844 5.63141 25.4902 5.42636L31.5211 1.3833C31.5831 1.34153 31.6493 1.3057 31.7187 1.27636C32.074 1.12594 32.4631 1.06244 32.8507 1.09164C33.2382 1.12083 33.612 1.2418 33.938 1.44354C34.264 1.64529 34.5319 1.92141 34.7174 2.24683C34.9028 2.57225 35 2.93665 35 3.30691V16.693C35 17.2824 34.7542 17.8476 34.3166 18.2644C33.879 18.6811 33.2855 18.9152 32.6667 18.9152V18.9159Z" fill="white"/>
<path d="M18.375 20H4.95833C3.64372 19.9987 2.38333 19.5008 1.45375 18.6155C0.524179 17.7302 0.0013512 16.5298 0 15.2778V4.72222C0.0013512 3.47021 0.524179 2.26984 1.45375 1.38453C2.38333 0.499219 3.64372 0.00128685 4.95833 0H18.41C19.7153 0.00147028 20.9666 0.495949 21.8896 1.37497C22.8126 2.25399 23.3318 3.44577 23.3333 4.68889V15.2778C23.332 16.5298 22.8092 17.7302 21.8796 18.6155C20.95 19.5008 19.6896 19.9987 18.375 20Z" fill="white"/>
</svg>
